# xmcd CD database file
#
# Track frame offsets:
#	150
#	14966
#	30567
#	35218
#	45822
#	53430
#	67531
#	84557
#	102100
#	113015
#	128203
#	141704
#	149805
#	168706
#	181494
#	194208
#	211159
#	224585
#	231411
#	244987
#	261488
#
# Disc length: 3610 seconds
#
# Revision: 2
# Processed by: cddbd v1.5.2PL0 Copyright (c) Steve Scherf et al.
# Submitted via: CDex 1.51
#
DISCID=4c0e1815
DTITLE=Jo Anne Kelly - Been Here and Gone (ft Woody Mann&Son House)
DYEAR=1999
DGENRE=Blues
TTITLE0=O'Clock
TTITLE1=Sun Going Down
TTITLE2=Green River
TTITLE3=Come to Die
TTITLE4=Been Here And Gone
TTITLE5=Henry Miller's Dream
TTITLE6=Jo's Mistreated Blues
TTITLE7=Bothering That Thing
TTITLE8=Travelling Solo
TTITLE9=King Street
TTITLE10=Baby Where You Been
TTITLE11=For Son
TTITLE12=Blues Ain't Nothin'
TTITLE13=Come to Die - Son's Take
TTITLE14=Slow Motion
TTITLE15=Rolling Log
TTITLE16=Pigmeat
TTITLE17=Sour Jive
TTITLE18=Stockyard Blues
TTITLE19=Drunken Barrelhouse
TTITLE20=Coda for Jo
EXTD=YEAR: 1999
EXTT0=
EXTT1=
EXTT2=
EXTT3=
EXTT4=
EXTT5=
EXTT6=
EXTT7=
EXTT8=
EXTT9=
EXTT10=
EXTT11=
EXTT12=
EXTT13=
EXTT14=
EXTT15=
EXTT16=
EXTT17=
EXTT18=
EXTT19=
EXTT20=
PLAYORDER=
